<svg xmlns="http://www.w3.org/2000/svg" xmlns:xlink="http://www.w3.org/1999/xlink" width="500" zoomAndPan="magnify" viewBox="0 0 375 374.999991" height="500" preserveAspectRatio="xMidYMid meet" version="1.0"><defs><g/><clipPath id="312f656dd7"><path d="M 123 181.375 L 269.714844 181.375 L 269.714844 212 L 123 212 Z M 123 181.375 " clip-rule="nonzero"/></clipPath><clipPath id="b40b0ac1cd"><path d="M 141 187 L 226 187 L 226 212.875 L 141 212.875 Z M 141 187 " clip-rule="nonzero"/></clipPath></defs><rect x="-37.5" width="450" fill="#ffffff" y="-37.499999" height="449.999989" fill-opacity="1"/><rect x="-37.5" width="450" fill="#ffffff" y="-37.499999" height="449.999989" fill-opacity="1"/><g clip-path="url(#312f656dd7)"><path fill="#000000" d="M 129.085938 181.371094 L 129.042969 181.398438 C 122.816406 184.457031 121.542969 189.0625 125.230469 195.222656 C 129.089844 201.125 135.738281 205.121094 145.171875 207.203125 C 153.25 208.925781 162.757812 209.070312 173.695312 207.636719 C 176.179688 207.292969 179.070312 206.75 182.359375 206.015625 C 207.300781 199.863281 220.5 196.691406 221.953125 196.503906 C 231.261719 194.917969 237.882812 194.21875 241.8125 194.414062 C 249.703125 194.984375 255.453125 196.445312 259.058594 198.800781 C 263.421875 201.398438 266.960938 205.53125 269.679688 211.195312 C 267.144531 199.261719 258.210938 192.800781 242.886719 191.8125 C 239.027344 191.441406 232.113281 192.085938 222.144531 193.742188 C 221.710938 193.660156 208.027344 196.929688 181.09375 203.546875 C 178.21875 204.191406 175.558594 204.679688 173.121094 205.011719 C 162.792969 206.382812 153.652344 206.242188 145.699219 204.585938 C 137.027344 202.664062 130.679688 199.019531 126.664062 193.640625 C 123.367188 188.960938 124.171875 184.871094 129.085938 181.371094 " fill-opacity="0.996" fill-rule="nonzero"/></g><path fill="#000000" d="M 190.722656 184.238281 L 190.371094 184.535156 C 182.726562 191.980469 171.929688 197.539062 157.980469 201.210938 C 153.246094 202.46875 148.5 202.910156 143.746094 202.539062 C 141.847656 202.398438 139.597656 201.964844 136.992188 201.238281 C 135.492188 200.84375 133.464844 200.078125 130.910156 198.9375 C 133.714844 200.734375 135.851562 201.933594 137.324219 202.535156 C 138.988281 203.320312 141.300781 203.96875 144.257812 204.484375 C 148.59375 205.210938 153.628906 204.910156 159.363281 203.582031 C 167.53125 201.367188 174.234375 198.589844 179.46875 195.242188 C 182.492188 193.300781 184.96875 191.363281 186.886719 189.433594 C 187.914062 188.570312 189.195312 186.839844 190.722656 184.238281 " fill-opacity="0.996" fill-rule="nonzero"/><g clip-path="url(#b40b0ac1cd)"><path fill="#000000" d="M 198.234375 205.933594 L 198.144531 205.980469 C 196.355469 207.402344 196.351562 209 198.140625 210.769531 C 199.839844 212.15625 202.4375 212.765625 205.933594 212.601562 C 212.035156 212.203125 217.300781 209.675781 221.71875 205.023438 C 225.378906 200.570312 226.523438 196.636719 225.148438 193.222656 C 223.769531 189.769531 220.238281 187.898438 214.550781 187.605469 C 211.058594 187.53125 206.726562 188.320312 201.5625 189.96875 C 200.355469 190.34375 198.394531 191.070312 195.691406 192.144531 L 177.609375 199.457031 C 173.871094 200.8125 170.8125 201.742188 168.4375 202.246094 C 158.613281 204.636719 149.628906 205.339844 141.484375 204.363281 C 145.289062 205.609375 149.351562 206.277344 153.667969 206.367188 C 157.65625 206.511719 162.890625 205.972656 169.375 204.75 C 171.335938 204.382812 174.585938 203.390625 179.128906 201.777344 C 193.34375 195.921875 200.855469 192.914062 201.664062 192.753906 C 206.988281 191.027344 211.226562 190.191406 214.371094 190.246094 C 219.3125 190.535156 222.136719 191.988281 222.847656 194.601562 C 223.554688 197.386719 222.230469 200.597656 218.875 204.226562 C 214.675781 208.136719 209.929688 210.320312 204.636719 210.777344 C 201.902344 210.945312 199.902344 210.574219 198.648438 209.664062 C 197.378906 208.773438 197.238281 207.53125 198.234375 205.933594 " fill-opacity="0.996" fill-rule="nonzero"/></g><g fill="#000000" fill-opacity="1"><g transform="translate(126.19239, 153.057405)"><g><path d="M 26.96875 -29.734375 C 26.851562 -28.304688 26.773438 -26.929688 26.734375 -25.609375 C 26.691406 -24.296875 26.671875 -23.289062 26.671875 -22.59375 C 26.671875 -21.976562 26.679688 -21.390625 26.703125 -20.828125 C 26.734375 -20.265625 26.765625 -19.789062 26.796875 -19.40625 L 25.828125 -19.40625 C 25.378906 -21.757812 24.8125 -23.617188 24.125 -24.984375 C 23.4375 -26.359375 22.617188 -27.332031 21.671875 -27.90625 C 20.722656 -28.476562 19.601562 -28.765625 18.3125 -28.765625 L 17.34375 -28.765625 L 17.34375 -4.78125 C 17.34375 -3.664062 17.460938 -2.828125 17.703125 -2.265625 C 17.941406 -1.703125 18.378906 -1.328125 19.015625 -1.140625 C 19.660156 -0.960938 20.601562 -0.863281 21.84375 -0.84375 L 21.84375 0 C 20.96875 -0.03125 19.8125 -0.0546875 18.375 -0.078125 C 16.9375 -0.109375 15.429688 -0.125 13.859375 -0.125 C 12.316406 -0.125 10.859375 -0.109375 9.484375 -0.078125 C 8.117188 -0.0546875 7.015625 -0.03125 6.171875 0 L 6.171875 -0.84375 C 7.429688 -0.863281 8.382812 -0.960938 9.03125 -1.140625 C 9.675781 -1.328125 10.109375 -1.703125 10.328125 -2.265625 C 10.554688 -2.828125 10.671875 -3.664062 10.671875 -4.78125 L 10.671875 -28.765625 L 9.75 -28.765625 C 8.457031 -28.765625 7.332031 -28.476562 6.375 -27.90625 C 5.425781 -27.332031 4.613281 -26.363281 3.9375 -25 C 3.269531 -23.644531 2.6875 -21.78125 2.1875 -19.40625 L 1.21875 -19.40625 C 1.269531 -19.789062 1.300781 -20.265625 1.3125 -20.828125 C 1.332031 -21.390625 1.34375 -21.976562 1.34375 -22.59375 C 1.34375 -23.289062 1.320312 -24.296875 1.28125 -25.609375 C 1.238281 -26.929688 1.160156 -28.304688 1.046875 -29.734375 C 2.335938 -29.703125 3.742188 -29.671875 5.265625 -29.640625 C 6.796875 -29.617188 8.332031 -29.609375 9.875 -29.609375 C 11.414062 -29.609375 12.800781 -29.609375 14.03125 -29.609375 C 15.289062 -29.609375 16.679688 -29.609375 18.203125 -29.609375 C 19.734375 -29.609375 21.265625 -29.617188 22.796875 -29.640625 C 24.335938 -29.671875 25.726562 -29.703125 26.96875 -29.734375 Z M 26.96875 -29.734375 "/></g></g></g><g fill="#000000" fill-opacity="1"><g transform="translate(150.387915, 153.68148)"><g><path d="M 3.140625 -16.828125 C 3.523438 -16.828125 3.859375 -16.6875 4.140625 -16.40625 C 4.421875 -16.132812 4.5625 -15.804688 4.5625 -15.421875 C 4.5625 -15.035156 4.421875 -14.703125 4.140625 -14.421875 C 3.859375 -14.148438 3.523438 -14.015625 3.140625 -14.015625 C 2.765625 -14.015625 2.4375 -14.148438 2.15625 -14.421875 C 1.875 -14.703125 1.734375 -15.035156 1.734375 -15.421875 C 1.734375 -15.804688 1.875 -16.132812 2.15625 -16.40625 C 2.4375 -16.6875 2.765625 -16.828125 3.140625 -16.828125 Z M 4.296875 -11.578125 L 4.296875 -2.046875 C 4.296875 -1.429688 4.421875 -1.015625 4.671875 -0.796875 C 4.929688 -0.578125 5.363281 -0.46875 5.96875 -0.46875 L 5.96875 0 C 5.71875 -0.0078125 5.335938 -0.0234375 4.828125 -0.046875 C 4.316406 -0.078125 3.804688 -0.09375 3.296875 -0.09375 C 2.796875 -0.09375 2.289062 -0.078125 1.78125 -0.046875 C 1.269531 -0.0234375 0.890625 -0.0078125 0.640625 0 L 0.640625 -0.46875 C 1.242188 -0.46875 1.671875 -0.578125 1.921875 -0.796875 C 2.179688 -1.015625 2.3125 -1.429688 2.3125 -2.046875 L 2.3125 -8.9375 C 2.3125 -9.59375 2.191406 -10.078125 1.953125 -10.390625 C 1.722656 -10.710938 1.285156 -10.875 0.640625 -10.875 L 0.640625 -11.328125 C 1.109375 -11.285156 1.5625 -11.265625 2 -11.265625 C 2.425781 -11.265625 2.832031 -11.289062 3.21875 -11.34375 C 3.613281 -11.394531 3.972656 -11.472656 4.296875 -11.578125 Z M 4.296875 -11.578125 "/></g></g></g><g fill="#000000" fill-opacity="1"><g transform="translate(156.832769, 153.68148)"><g><path d="M 7.890625 -11.640625 C 8.410156 -11.640625 8.859375 -11.566406 9.234375 -11.421875 C 9.617188 -11.273438 9.9375 -11.066406 10.1875 -10.796875 C 10.46875 -10.503906 10.65625 -10.125 10.75 -9.65625 C 10.851562 -9.1875 10.90625 -8.609375 10.90625 -7.921875 L 10.90625 -2.046875 C 10.90625 -1.429688 11.035156 -1.015625 11.296875 -0.796875 C 11.554688 -0.578125 11.984375 -0.46875 12.578125 -0.46875 L 12.578125 0 C 12.328125 -0.0078125 11.945312 -0.0234375 11.4375 -0.046875 C 10.925781 -0.078125 10.425781 -0.09375 9.9375 -0.09375 C 9.457031 -0.09375 8.984375 -0.078125 8.515625 -0.046875 C 8.054688 -0.0234375 7.710938 -0.0078125 7.484375 0 L 7.484375 -0.46875 C 8.003906 -0.46875 8.375 -0.578125 8.59375 -0.796875 C 8.820312 -1.015625 8.9375 -1.429688 8.9375 -2.046875 L 8.9375 -8.40625 C 8.9375 -8.863281 8.90625 -9.28125 8.84375 -9.65625 C 8.78125 -10.039062 8.628906 -10.347656 8.390625 -10.578125 C 8.160156 -10.816406 7.785156 -10.9375 7.265625 -10.9375 C 6.691406 -10.9375 6.179688 -10.757812 5.734375 -10.40625 C 5.285156 -10.050781 4.929688 -9.566406 4.671875 -8.953125 C 4.421875 -8.347656 4.296875 -7.675781 4.296875 -6.9375 L 4.296875 -2.046875 C 4.296875 -1.429688 4.40625 -1.015625 4.625 -0.796875 C 4.84375 -0.578125 5.210938 -0.46875 5.734375 -0.46875 L 5.734375 0 C 5.503906 -0.0078125 5.15625 -0.0234375 4.6875 -0.046875 C 4.226562 -0.078125 3.757812 -0.09375 3.28125 -0.09375 C 2.789062 -0.09375 2.289062 -0.078125 1.78125 -0.046875 C 1.269531 -0.0234375 0.890625 -0.0078125 0.640625 0 L 0.640625 -0.46875 C 1.242188 -0.46875 1.671875 -0.578125 1.921875 -0.796875 C 2.179688 -1.015625 2.3125 -1.429688 2.3125 -2.046875 L 2.3125 -8.9375 C 2.3125 -9.59375 2.191406 -10.078125 1.953125 -10.390625 C 1.722656 -10.710938 1.285156 -10.875 0.640625 -10.875 L 0.640625 -11.328125 C 1.109375 -11.285156 1.5625 -11.265625 2 -11.265625 C 2.425781 -11.265625 2.832031 -11.289062 3.21875 -11.34375 C 3.613281 -11.394531 3.972656 -11.472656 4.296875 -11.578125 L 4.296875 -8.96875 C 4.671875 -9.925781 5.1875 -10.609375 5.84375 -11.015625 C 6.507812 -11.429688 7.191406 -11.640625 7.890625 -11.640625 Z M 14.515625 -11.640625 C 15.035156 -11.640625 15.484375 -11.566406 15.859375 -11.421875 C 16.242188 -11.273438 16.5625 -11.066406 16.8125 -10.796875 C 17.082031 -10.503906 17.269531 -10.125 17.375 -9.65625 C 17.476562 -9.1875 17.53125 -8.609375 17.53125 -7.921875 L 17.53125 -2.046875 C 17.53125 -1.429688 17.65625 -1.015625 17.90625 -0.796875 C 18.164062 -0.578125 18.597656 -0.46875 19.203125 -0.46875 L 19.203125 0 C 18.953125 -0.0078125 18.570312 -0.0234375 18.0625 -0.046875 C 17.550781 -0.078125 17.050781 -0.09375 16.5625 -0.09375 C 16.082031 -0.09375 15.609375 -0.078125 15.140625 -0.046875 C 14.679688 -0.0234375 14.335938 -0.0078125 14.109375 0 L 14.109375 -0.46875 C 14.628906 -0.46875 15 -0.578125 15.21875 -0.796875 C 15.4375 -1.015625 15.546875 -1.429688 15.546875 -2.046875 L 15.546875 -8.40625 C 15.546875 -8.863281 15.515625 -9.28125 15.453125 -9.65625 C 15.398438 -10.039062 15.253906 -10.347656 15.015625 -10.578125 C 14.785156 -10.816406 14.40625 -10.9375 13.875 -10.9375 C 13.3125 -10.9375 12.804688 -10.757812 12.359375 -10.40625 C 11.910156 -10.050781 11.554688 -9.570312 11.296875 -8.96875 C 11.035156 -8.375 10.90625 -7.703125 10.90625 -6.953125 L 10.84375 -9 C 11.238281 -10.007812 11.773438 -10.703125 12.453125 -11.078125 C 13.128906 -11.453125 13.816406 -11.640625 14.515625 -11.640625 Z M 14.515625 -11.640625 "/></g></g></g><g fill="#000000" fill-opacity="1"><g transform="translate(176.365291, 153.68148)"><g><path d="M 5.984375 -11.640625 C 7.273438 -11.640625 8.28125 -11.242188 9 -10.453125 C 9.726562 -9.671875 10.09375 -8.453125 10.09375 -6.796875 L 2.328125 -6.796875 L 2.3125 -7.21875 L 7.984375 -7.21875 C 8.015625 -7.9375 7.957031 -8.597656 7.8125 -9.203125 C 7.664062 -9.816406 7.429688 -10.304688 7.109375 -10.671875 C 6.796875 -11.035156 6.390625 -11.21875 5.890625 -11.21875 C 5.222656 -11.21875 4.628906 -10.878906 4.109375 -10.203125 C 3.585938 -9.535156 3.273438 -8.46875 3.171875 -7 L 3.234375 -6.90625 C 3.203125 -6.6875 3.175781 -6.441406 3.15625 -6.171875 C 3.144531 -5.910156 3.140625 -5.648438 3.140625 -5.390625 C 3.140625 -4.390625 3.300781 -3.53125 3.625 -2.8125 C 3.945312 -2.09375 4.367188 -1.546875 4.890625 -1.171875 C 5.410156 -0.796875 5.953125 -0.609375 6.515625 -0.609375 C 6.953125 -0.609375 7.367188 -0.675781 7.765625 -0.8125 C 8.160156 -0.957031 8.523438 -1.191406 8.859375 -1.515625 C 9.203125 -1.835938 9.5 -2.269531 9.75 -2.8125 L 10.1875 -2.640625 C 10.019531 -2.148438 9.753906 -1.675781 9.390625 -1.21875 C 9.023438 -0.769531 8.5625 -0.398438 8 -0.109375 C 7.445312 0.171875 6.804688 0.3125 6.078125 0.3125 C 5.015625 0.3125 4.101562 0.0703125 3.34375 -0.40625 C 2.59375 -0.894531 2.015625 -1.566406 1.609375 -2.421875 C 1.210938 -3.285156 1.015625 -4.273438 1.015625 -5.390625 C 1.015625 -6.679688 1.21875 -7.789062 1.625 -8.71875 C 2.039062 -9.65625 2.617188 -10.375 3.359375 -10.875 C 4.109375 -11.382812 4.984375 -11.640625 5.984375 -11.640625 Z M 5.984375 -11.640625 "/></g></g></g><g fill="#000000" fill-opacity="1"><g transform="translate(187.495311, 153.68148)"><g><path d="M 4.140625 -17.25 L 4.140625 -2.046875 C 4.140625 -1.429688 4.265625 -1.015625 4.515625 -0.796875 C 4.773438 -0.578125 5.207031 -0.46875 5.8125 -0.46875 L 5.8125 0 C 5.5625 -0.0078125 5.179688 -0.0234375 4.671875 -0.046875 C 4.171875 -0.078125 3.660156 -0.09375 3.140625 -0.09375 C 2.640625 -0.09375 2.132812 -0.078125 1.625 -0.046875 C 1.113281 -0.0234375 0.734375 -0.0078125 0.484375 0 L 0.484375 -0.46875 C 1.085938 -0.46875 1.515625 -0.578125 1.765625 -0.796875 C 2.023438 -1.015625 2.15625 -1.429688 2.15625 -2.046875 L 2.15625 -14.609375 C 2.15625 -15.265625 2.035156 -15.75 1.796875 -16.0625 C 1.566406 -16.382812 1.128906 -16.546875 0.484375 -16.546875 L 0.484375 -17 C 0.953125 -16.957031 1.40625 -16.9375 1.84375 -16.9375 C 2.269531 -16.9375 2.675781 -16.960938 3.0625 -17.015625 C 3.457031 -17.066406 3.816406 -17.144531 4.140625 -17.25 Z M 4.140625 -17.25 "/></g></g></g><g fill="#000000" fill-opacity="1"><g transform="translate(193.786185, 153.68148)"><g><path d="M 5.984375 -11.640625 C 7.273438 -11.640625 8.28125 -11.242188 9 -10.453125 C 9.726562 -9.671875 10.09375 -8.453125 10.09375 -6.796875 L 2.328125 -6.796875 L 2.3125 -7.21875 L 7.984375 -7.21875 C 8.015625 -7.9375 7.957031 -8.597656 7.8125 -9.203125 C 7.664062 -9.816406 7.429688 -10.304688 7.109375 -10.671875 C 6.796875 -11.035156 6.390625 -11.21875 5.890625 -11.21875 C 5.222656 -11.21875 4.628906 -10.878906 4.109375 -10.203125 C 3.585938 -9.535156 3.273438 -8.46875 3.171875 -7 L 3.234375 -6.90625 C 3.203125 -6.6875 3.175781 -6.441406 3.15625 -6.171875 C 3.144531 -5.910156 3.140625 -5.648438 3.140625 -5.390625 C 3.140625 -4.390625 3.300781 -3.53125 3.625 -2.8125 C 3.945312 -2.09375 4.367188 -1.546875 4.890625 -1.171875 C 5.410156 -0.796875 5.953125 -0.609375 6.515625 -0.609375 C 6.953125 -0.609375 7.367188 -0.675781 7.765625 -0.8125 C 8.160156 -0.957031 8.523438 -1.191406 8.859375 -1.515625 C 9.203125 -1.835938 9.5 -2.269531 9.75 -2.8125 L 10.1875 -2.640625 C 10.019531 -2.148438 9.753906 -1.675781 9.390625 -1.21875 C 9.023438 -0.769531 8.5625 -0.398438 8 -0.109375 C 7.445312 0.171875 6.804688 0.3125 6.078125 0.3125 C 5.015625 0.3125 4.101562 0.0703125 3.34375 -0.40625 C 2.59375 -0.894531 2.015625 -1.566406 1.609375 -2.421875 C 1.210938 -3.285156 1.015625 -4.273438 1.015625 -5.390625 C 1.015625 -6.679688 1.21875 -7.789062 1.625 -8.71875 C 2.039062 -9.65625 2.617188 -10.375 3.359375 -10.875 C 4.109375 -11.382812 4.984375 -11.640625 5.984375 -11.640625 Z M 5.984375 -11.640625 "/></g></g></g><g fill="#000000" fill-opacity="1"><g transform="translate(204.916204, 153.68148)"><g><path d="M 4.578125 -11.640625 C 5.160156 -11.640625 5.65625 -11.539062 6.0625 -11.34375 C 6.476562 -11.15625 6.78125 -10.984375 6.96875 -10.828125 C 7.457031 -10.429688 7.753906 -10.691406 7.859375 -11.609375 L 8.359375 -11.609375 C 8.328125 -11.203125 8.300781 -10.71875 8.28125 -10.15625 C 8.269531 -9.59375 8.265625 -8.832031 8.265625 -7.875 L 7.765625 -7.875 C 7.679688 -8.414062 7.53125 -8.941406 7.3125 -9.453125 C 7.101562 -9.972656 6.789062 -10.394531 6.375 -10.71875 C 5.96875 -11.050781 5.4375 -11.21875 4.78125 -11.21875 C 4.257812 -11.21875 3.828125 -11.070312 3.484375 -10.78125 C 3.140625 -10.5 2.96875 -10.082031 2.96875 -9.53125 C 2.96875 -9.082031 3.097656 -8.703125 3.359375 -8.390625 C 3.628906 -8.078125 3.972656 -7.785156 4.390625 -7.515625 C 4.816406 -7.242188 5.28125 -6.945312 5.78125 -6.625 C 6.34375 -6.269531 6.847656 -5.910156 7.296875 -5.546875 C 7.753906 -5.179688 8.117188 -4.773438 8.390625 -4.328125 C 8.660156 -3.890625 8.796875 -3.367188 8.796875 -2.765625 C 8.796875 -2.097656 8.617188 -1.535156 8.265625 -1.078125 C 7.921875 -0.617188 7.460938 -0.269531 6.890625 -0.03125 C 6.328125 0.195312 5.707031 0.3125 5.03125 0.3125 C 4.707031 0.3125 4.40625 0.285156 4.125 0.234375 C 3.84375 0.179688 3.566406 0.101562 3.296875 0 C 3.148438 -0.0703125 3 -0.160156 2.84375 -0.265625 C 2.695312 -0.367188 2.546875 -0.476562 2.390625 -0.59375 C 2.242188 -0.707031 2.113281 -0.703125 2 -0.578125 C 1.882812 -0.453125 1.796875 -0.207031 1.734375 0.15625 L 1.234375 0.15625 C 1.265625 -0.3125 1.285156 -0.882812 1.296875 -1.5625 C 1.304688 -2.238281 1.3125 -3.132812 1.3125 -4.25 L 1.828125 -4.25 C 1.929688 -3.425781 2.078125 -2.707031 2.265625 -2.09375 C 2.453125 -1.476562 2.75 -0.992188 3.15625 -0.640625 C 3.570312 -0.296875 4.148438 -0.125 4.890625 -0.125 C 5.179688 -0.125 5.472656 -0.191406 5.765625 -0.328125 C 6.066406 -0.460938 6.320312 -0.679688 6.53125 -0.984375 C 6.738281 -1.296875 6.84375 -1.707031 6.84375 -2.21875 C 6.84375 -2.863281 6.609375 -3.390625 6.140625 -3.796875 C 5.671875 -4.210938 5.078125 -4.648438 4.359375 -5.109375 C 3.828125 -5.441406 3.328125 -5.773438 2.859375 -6.109375 C 2.398438 -6.453125 2.023438 -6.832031 1.734375 -7.25 C 1.453125 -7.675781 1.3125 -8.191406 1.3125 -8.796875 C 1.3125 -9.460938 1.460938 -10.003906 1.765625 -10.421875 C 2.066406 -10.835938 2.46875 -11.144531 2.96875 -11.34375 C 3.46875 -11.539062 4.003906 -11.640625 4.578125 -11.640625 Z M 4.578125 -11.640625 "/></g></g></g><g fill="#000000" fill-opacity="1"><g transform="translate(214.748452, 153.68148)"><g><path d="M 4.578125 -11.640625 C 5.160156 -11.640625 5.65625 -11.539062 6.0625 -11.34375 C 6.476562 -11.15625 6.78125 -10.984375 6.96875 -10.828125 C 7.457031 -10.429688 7.753906 -10.691406 7.859375 -11.609375 L 8.359375 -11.609375 C 8.328125 -11.203125 8.300781 -10.71875 8.28125 -10.15625 C 8.269531 -9.59375 8.265625 -8.832031 8.265625 -7.875 L 7.765625 -7.875 C 7.679688 -8.414062 7.53125 -8.941406 7.3125 -9.453125 C 7.101562 -9.972656 6.789062 -10.394531 6.375 -10.71875 C 5.96875 -11.050781 5.4375 -11.21875 4.78125 -11.21875 C 4.257812 -11.21875 3.828125 -11.070312 3.484375 -10.78125 C 3.140625 -10.5 2.96875 -10.082031 2.96875 -9.53125 C 2.96875 -9.082031 3.097656 -8.703125 3.359375 -8.390625 C 3.628906 -8.078125 3.972656 -7.785156 4.390625 -7.515625 C 4.816406 -7.242188 5.28125 -6.945312 5.78125 -6.625 C 6.34375 -6.269531 6.847656 -5.910156 7.296875 -5.546875 C 7.753906 -5.179688 8.117188 -4.773438 8.390625 -4.328125 C 8.660156 -3.890625 8.796875 -3.367188 8.796875 -2.765625 C 8.796875 -2.097656 8.617188 -1.535156 8.265625 -1.078125 C 7.921875 -0.617188 7.460938 -0.269531 6.890625 -0.03125 C 6.328125 0.195312 5.707031 0.3125 5.03125 0.3125 C 4.707031 0.3125 4.40625 0.285156 4.125 0.234375 C 3.84375 0.179688 3.566406 0.101562 3.296875 0 C 3.148438 -0.0703125 3 -0.160156 2.84375 -0.265625 C 2.695312 -0.367188 2.546875 -0.476562 2.390625 -0.59375 C 2.242188 -0.707031 2.113281 -0.703125 2 -0.578125 C 1.882812 -0.453125 1.796875 -0.207031 1.734375 0.15625 L 1.234375 0.15625 C 1.265625 -0.3125 1.285156 -0.882812 1.296875 -1.5625 C 1.304688 -2.238281 1.3125 -3.132812 1.3125 -4.25 L 1.828125 -4.25 C 1.929688 -3.425781 2.078125 -2.707031 2.265625 -2.09375 C 2.453125 -1.476562 2.75 -0.992188 3.15625 -0.640625 C 3.570312 -0.296875 4.148438 -0.125 4.890625 -0.125 C 5.179688 -0.125 5.472656 -0.191406 5.765625 -0.328125 C 6.066406 -0.460938 6.320312 -0.679688 6.53125 -0.984375 C 6.738281 -1.296875 6.84375 -1.707031 6.84375 -2.21875 C 6.84375 -2.863281 6.609375 -3.390625 6.140625 -3.796875 C 5.671875 -4.210938 5.078125 -4.648438 4.359375 -5.109375 C 3.828125 -5.441406 3.328125 -5.773438 2.859375 -6.109375 C 2.398438 -6.453125 2.023438 -6.832031 1.734375 -7.25 C 1.453125 -7.675781 1.3125 -8.191406 1.3125 -8.796875 C 1.3125 -9.460938 1.460938 -10.003906 1.765625 -10.421875 C 2.066406 -10.835938 2.46875 -11.144531 2.96875 -11.34375 C 3.46875 -11.539062 4.003906 -11.640625 4.578125 -11.640625 Z M 4.578125 -11.640625 "/></g></g></g><g fill="#000000" fill-opacity="1"><g transform="translate(212.659296, 184.555037)"><g><path d="M 14.71875 -28.40625 L 24.4375 -3.359375 C 24.8125 -2.398438 25.234375 -1.738281 25.703125 -1.375 C 26.171875 -1.019531 26.585938 -0.828125 26.953125 -0.796875 L 26.953125 0 C 26.160156 -0.0507812 25.222656 -0.0820312 24.140625 -0.09375 C 23.054688 -0.113281 21.96875 -0.125 20.875 -0.125 C 19.65625 -0.125 18.5 -0.113281 17.40625 -0.09375 C 16.3125 -0.0820312 15.441406 -0.0507812 14.796875 0 L 14.796875 -0.796875 C 16.160156 -0.847656 17.019531 -1.082031 17.375 -1.5 C 17.738281 -1.914062 17.65625 -2.800781 17.125 -4.15625 L 10.3125 -22.765625 L 11.046875 -23.796875 L 4.953125 -7.953125 C 4.367188 -6.492188 4.015625 -5.296875 3.890625 -4.359375 C 3.773438 -3.421875 3.84375 -2.695312 4.09375 -2.1875 C 4.351562 -1.6875 4.769531 -1.335938 5.34375 -1.140625 C 5.914062 -0.941406 6.601562 -0.828125 7.40625 -0.796875 L 7.40625 0 C 6.519531 -0.0507812 5.675781 -0.0820312 4.875 -0.09375 C 4.082031 -0.113281 3.269531 -0.125 2.4375 -0.125 C 1.851562 -0.125 1.300781 -0.113281 0.78125 -0.09375 C 0.257812 -0.0820312 -0.195312 -0.0507812 -0.59375 0 L -0.59375 -0.796875 C -0.0390625 -0.898438 0.523438 -1.257812 1.109375 -1.875 C 1.703125 -2.488281 2.28125 -3.53125 2.84375 -5 L 11.953125 -28.40625 C 12.378906 -28.375 12.835938 -28.359375 13.328125 -28.359375 C 13.828125 -28.359375 14.289062 -28.375 14.71875 -28.40625 Z M 17.515625 -11.515625 L 17.515625 -10.71875 L 5.59375 -10.71875 L 6 -11.515625 Z M 17.515625 -11.515625 "/></g></g></g><g fill="#000000" fill-opacity="1"><g transform="translate(239.348749, 183.398616)"><g><path d="M 7.484375 -11.640625 C 7.878906 -11.640625 8.222656 -11.554688 8.515625 -11.390625 C 8.816406 -11.234375 9.050781 -11.023438 9.21875 -10.765625 C 9.394531 -10.515625 9.484375 -10.226562 9.484375 -9.90625 C 9.484375 -9.53125 9.367188 -9.203125 9.140625 -8.921875 C 8.910156 -8.648438 8.609375 -8.515625 8.234375 -8.515625 C 7.921875 -8.515625 7.644531 -8.613281 7.40625 -8.8125 C 7.175781 -9.007812 7.0625 -9.289062 7.0625 -9.65625 C 7.0625 -9.9375 7.140625 -10.175781 7.296875 -10.375 C 7.453125 -10.570312 7.625 -10.726562 7.8125 -10.84375 C 7.707031 -10.988281 7.550781 -11.0625 7.34375 -11.0625 C 6.894531 -11.0625 6.476562 -10.925781 6.09375 -10.65625 C 5.707031 -10.382812 5.382812 -10.035156 5.125 -9.609375 C 4.863281 -9.179688 4.660156 -8.726562 4.515625 -8.25 C 4.367188 -7.78125 4.296875 -7.34375 4.296875 -6.9375 L 4.296875 -2.265625 C 4.296875 -1.546875 4.503906 -1.066406 4.921875 -0.828125 C 5.335938 -0.585938 5.90625 -0.46875 6.625 -0.46875 L 6.625 0 C 6.28125 -0.0078125 5.800781 -0.0234375 5.1875 -0.046875 C 4.570312 -0.078125 3.921875 -0.09375 3.234375 -0.09375 C 2.734375 -0.09375 2.238281 -0.078125 1.75 -0.046875 C 1.257812 -0.0234375 0.890625 -0.0078125 0.640625 0 L 0.640625 -0.46875 C 1.242188 -0.46875 1.671875 -0.578125 1.921875 -0.796875 C 2.179688 -1.015625 2.3125 -1.429688 2.3125 -2.046875 L 2.3125 -8.9375 C 2.3125 -9.59375 2.191406 -10.078125 1.953125 -10.390625 C 1.722656 -10.710938 1.285156 -10.875 0.640625 -10.875 L 0.640625 -11.328125 C 1.109375 -11.285156 1.5625 -11.265625 2 -11.265625 C 2.425781 -11.265625 2.832031 -11.289062 3.21875 -11.34375 C 3.613281 -11.394531 3.972656 -11.472656 4.296875 -11.578125 L 4.296875 -8.828125 C 4.453125 -9.242188 4.679688 -9.671875 4.984375 -10.109375 C 5.285156 -10.546875 5.644531 -10.910156 6.0625 -11.203125 C 6.488281 -11.492188 6.960938 -11.640625 7.484375 -11.640625 Z M 7.484375 -11.640625 "/></g></g></g><g fill="#000000" fill-opacity="1"><g transform="translate(249.137006, 183.398616)"><g><path d="M 4.1875 -14.984375 L 4.1875 -11.3125 L 7.4375 -11.3125 L 7.4375 -10.875 L 4.1875 -10.875 L 4.1875 -2.359375 C 4.1875 -1.660156 4.304688 -1.171875 4.546875 -0.890625 C 4.796875 -0.617188 5.144531 -0.484375 5.59375 -0.484375 C 6.03125 -0.484375 6.410156 -0.660156 6.734375 -1.015625 C 7.054688 -1.378906 7.332031 -1.988281 7.5625 -2.84375 L 8.015625 -2.734375 C 7.859375 -1.878906 7.5625 -1.15625 7.125 -0.5625 C 6.695312 0.0195312 6.035156 0.3125 5.140625 0.3125 C 4.648438 0.3125 4.242188 0.25 3.921875 0.125 C 3.597656 0 3.3125 -0.179688 3.0625 -0.421875 C 2.738281 -0.753906 2.515625 -1.15625 2.390625 -1.625 C 2.265625 -2.09375 2.203125 -2.71875 2.203125 -3.5 L 2.203125 -10.875 L 0.09375 -10.875 L 0.09375 -11.3125 L 2.203125 -11.3125 L 2.203125 -14.671875 C 2.566406 -14.691406 2.914062 -14.722656 3.25 -14.765625 C 3.59375 -14.804688 3.90625 -14.878906 4.1875 -14.984375 Z M 4.1875 -14.984375 "/></g></g></g></svg>